<svg xmlns="http://www.w3.org/2000/svg" width="248" height="70" viewBox="0 0 248 70" fill="none"><g clip-path="url(#clip0_180_5049)"><path d="M35.0093 35.014L60.6558 58.8C66.4512 52.5535 70.0046 44.1953 70.0046 35C70 15.6698 54.3302 0 35 0C15.6698 0 0 15.6698 0 35C0 43.9953 3.39535 52.1953 8.97209 58.3907L35.0093 35.014Z" fill="#060B27"></path><path d="M35.2002 45.6094C28.8699 51.9164 22.5397 58.2233 16.2095 64.5303C21.6374 67.9908 28.0839 70.0001 35.0002 70.0001C41.9258 70.0001 48.3769 67.9815 53.8095 64.5117C47.6048 58.2094 41.4048 51.9117 35.2002 45.6094Z" fill="#060B27"></path></g><path d="M94.8501 54H110.6C114.567 54 117.683 53.0167 119.95 51.05C122.25 49.05 123.4 46.2833 123.4 42.75C123.4 40.9833 123.017 39.3333 122.25 37.8C121.483 36.2667 120.233 34.9667 118.5 33.9C119.633 33.0333 120.467 32 121 30.8C121.567 29.5667 121.85 28.25 121.85 26.85C121.85 23.75 120.833 21.3 118.8 19.5C116.8 17.6667 114.05 16.75 110.55 16.75H94.8501V54ZM100.75 31.6V21.85H110.7C112.3 21.85 113.583 22.2833 114.55 23.15C115.517 23.9833 116 25.1333 116 26.6C116 28.0667 115.517 29.2667 114.55 30.2C113.583 31.1333 112.3 31.6 110.7 31.6H100.75ZM100.75 48.75V36.8H111.05C113.017 36.8 114.583 37.35 115.75 38.45C116.917 39.5167 117.5 40.9667 117.5 42.8C117.5 44.6333 116.917 46.0833 115.75 47.15C114.583 48.2167 113.017 48.75 111.05 48.75H100.75Z" fill="#060B27"></path><path d="M127.969 54H133.869V38.4H151.119V54H156.969V16.75H151.119V33.15H133.869V16.75H127.969V54Z" fill="#060B27"></path><path d="M175.338 54.6C178.105 54.6 180.505 53.9667 182.538 52.7C184.605 51.4333 186.055 49.8333 186.888 47.9L182.288 45.65C181.621 46.7833 180.705 47.7333 179.538 48.5C178.405 49.2333 177.021 49.6 175.388 49.6C173.255 49.6 171.438 48.9333 169.938 47.6C168.438 46.2333 167.605 44.4 167.438 42.1H187.538C187.638 41.7 187.705 41.2667 187.738 40.8C187.771 40.3333 187.788 39.8833 187.788 39.45C187.788 37.1167 187.271 34.9667 186.238 33C185.238 31 183.771 29.4 181.838 28.2C179.938 26.9667 177.621 26.35 174.888 26.35C172.355 26.35 170.071 26.9667 168.038 28.2C166.038 29.4 164.455 31.0667 163.288 33.2C162.121 35.3 161.538 37.7 161.538 40.4C161.538 43.0667 162.121 45.4833 163.288 47.65C164.488 49.7833 166.121 51.4833 168.188 52.75C170.255 53.9833 172.638 54.6 175.338 54.6ZM174.888 31.1C176.788 31.1 178.388 31.7 179.688 32.9C180.988 34.1 181.688 35.6667 181.788 37.6H167.538C167.871 35.5333 168.721 33.9333 170.088 32.8C171.455 31.6667 173.055 31.1 174.888 31.1Z" fill="#060B27"></path><path d="M191.802 54H197.452V38.4C197.452 36.2667 198.019 34.6333 199.152 33.5C200.319 32.3333 201.835 31.75 203.702 31.75H206.052V26.6H204.402C202.769 26.6 201.335 26.9 200.102 27.5C198.869 28.1 197.902 29.0667 197.202 30.4V26.95H191.802V54Z" fill="#060B27"></path><path d="M221.467 54.6C224.067 54.6 226.434 54 228.567 52.8C230.701 51.5667 232.401 49.8833 233.667 47.75C234.934 45.6167 235.567 43.1833 235.567 40.45C235.567 37.7167 234.934 35.3 233.667 33.2C232.434 31.0667 230.751 29.4 228.617 28.2C226.484 26.9667 224.101 26.35 221.467 26.35C218.834 26.35 216.434 26.9667 214.267 28.2C212.134 29.4 210.434 31.0667 209.167 33.2C207.934 35.3 207.317 37.7167 207.317 40.45C207.317 43.15 207.951 45.5667 209.217 47.7C210.484 49.8333 212.184 51.5167 214.317 52.75C216.484 53.9833 218.867 54.6 221.467 54.6ZM221.467 49.35C219.901 49.35 218.484 48.9667 217.217 48.2C215.984 47.4333 215.001 46.3833 214.267 45.05C213.567 43.6833 213.217 42.15 213.217 40.45C213.217 38.75 213.567 37.2333 214.267 35.9C215.001 34.5667 215.984 33.5167 217.217 32.75C218.484 31.9833 219.901 31.6 221.467 31.6C223.034 31.6 224.434 31.9833 225.667 32.75C226.934 33.5167 227.917 34.5667 228.617 35.9C229.351 37.2333 229.717 38.75 229.717 40.45C229.717 42.15 229.351 43.6833 228.617 45.05C227.917 46.3833 226.934 47.4333 225.667 48.2C224.434 48.9667 223.034 49.35 221.467 49.35Z" fill="#060B27"></path><path d="M242.083 54H247.833V47.5H242.083V54Z" fill="#060B27"></path><defs><clipPath id="clip0_180_5049"><rect width="70" height="70" fill="white"></rect></clipPath></defs></svg>