<?xml version="1.0" encoding="utf-8"?>
<!-- Generator: Adobe Illustrator 26.5.1, SVG Export Plug-In . SVG Version: 6.00 Build 0)  -->
<svg version="1.1" id="Layer_1" xmlns="http://www.w3.org/2000/svg" xmlns:xlink="http://www.w3.org/1999/xlink" x="0px" y="0px"
	 viewBox="0 0 608.34 354.41" style="enable-background:new 0 0 608.34 354.41;" xml:space="preserve">
<style type="text/css">
	.st0{fill:#FFFFFF;stroke:#FFFFFF;stroke-miterlimit:10;}
	.st1{fill:#282828;}
	.st2{stroke:#000000;stroke-miterlimit:10;}
</style>
<g>
	<path class="st0" d="M144.64,221.47c-0.3,0.06-0.57,0-0.83-0.17l-51.62-34.71c-0.25-0.17-0.41-0.4-0.47-0.7
		c-0.06-0.3,0-0.57,0.17-0.83l8.78-13.06c2.94-4.38,6.62-6.99,11.03-7.83c4.41-0.84,8.83,0.23,13.26,3.2l24.29,16.33
		c4.43,2.98,7.09,6.67,7.97,11.07c0.88,4.4-0.15,8.79-3.09,13.17L145.34,221C145.17,221.25,144.93,221.41,144.64,221.47z
		 M143.3,207.54l3-4.63c1.13-1.68,1.37-3.5,0.72-5.45c-0.65-1.95-2.07-3.7-4.28-5.26l-23.22-15.61c-2.29-1.54-4.46-2.24-6.51-2.11
		c-2.05,0.14-3.68,1.1-4.87,2.88l-3.03,4.51c-0.17,0.26-0.13,0.47,0.12,0.64l37.42,25.16C142.92,207.84,143.13,207.8,143.3,207.54z"
		/>
	<path class="st0" d="M209.37,153.54l-21.25-17.53c-0.24-0.13-0.43-0.15-0.59-0.05l-4.04,2.73c-0.26,0.17-0.3,0.38-0.12,0.64
		l14.61,21.67c0.17,0.26,0.23,0.53,0.17,0.83c-0.06,0.3-0.22,0.53-0.47,0.7l-7.02,4.73c-0.26,0.17-0.53,0.23-0.83,0.17
		c-0.3-0.06-0.53-0.21-0.7-0.47l-34.78-51.58c-0.17-0.25-0.23-0.53-0.17-0.83c0.06-0.3,0.21-0.53,0.47-0.7l14.34-9.67
		c2.7-1.82,5.51-2.77,8.45-2.86c2.93-0.09,5.77,0.66,8.51,2.25s5.14,3.92,7.2,6.97c2.13,3.15,3.35,6.29,3.67,9.4
		c0.32,3.11-0.22,5.99-1.61,8.64c-0.17,0.19-0.14,0.39,0.08,0.61l22.96,17.92c0.12,0.07,0.23,0.18,0.33,0.33
		c0.31,0.46,0.18,0.88-0.38,1.25l-7.32,4.94C210.37,153.98,209.87,153.95,209.37,153.54z M167.98,116.52l10.24,15.18
		c0.17,0.26,0.38,0.3,0.64,0.12l4.65-3.14c1.83-1.23,2.84-2.95,3.02-5.15c0.18-2.2-0.55-4.51-2.19-6.96c-1.65-2.44-3.53-4-5.65-4.68
		c-2.12-0.68-4.1-0.4-5.93,0.83l-4.65,3.14C167.85,116.05,167.81,116.27,167.98,116.52z"/>
	<path class="st0" d="M270.36,74.32c-0.17,0.26-0.4,0.41-0.7,0.48l-19.43,4.2c-0.3,0.07-0.42,0.25-0.35,0.55l3.67,17
		c0.07,0.3,0.25,0.42,0.55,0.35l11.51-2.49c0.3-0.07,0.58-0.01,0.83,0.15c0.26,0.17,0.42,0.4,0.48,0.7l1.5,6.93
		c0.07,0.3,0.01,0.58-0.15,0.83c-0.17,0.26-0.4,0.42-0.7,0.48l-11.51,2.49c-0.3,0.06-0.42,0.25-0.35,0.55l3.69,17.09
		c0.07,0.3,0.25,0.42,0.55,0.35l19.43-4.2c0.3-0.06,0.58-0.01,0.83,0.15c0.26,0.17,0.42,0.4,0.48,0.7l1.48,6.84
		c0.07,0.3,0.01,0.58-0.15,0.83c-0.17,0.26-0.4,0.41-0.7,0.48l-29.23,6.32c-0.3,0.06-0.58,0.02-0.83-0.15
		c-0.26-0.16-0.41-0.4-0.48-0.7l-13.14-60.8c-0.07-0.3-0.02-0.58,0.15-0.83c0.16-0.26,0.4-0.41,0.7-0.48l29.23-6.32
		c0.3-0.06,0.58-0.01,0.83,0.15c0.26,0.17,0.42,0.4,0.48,0.7l1.48,6.84C270.57,73.78,270.52,74.06,270.36,74.32z"/>
	<path class="st0" d="M344.06,131.25l-0.07-9.82c0.05-0.3-0.1-0.48-0.46-0.55l-13.24-2.29c-0.36-0.06-0.57,0.06-0.62,0.36
		l-3.37,9.22c-0.18,0.66-0.63,0.92-1.35,0.79l-8.25-1.43c-0.85-0.15-1.11-0.6-0.79-1.35l24.05-58.97c0.24-0.64,0.69-0.91,1.35-0.79
		l9.61,1.67c0.66,0.12,1,0.52,1.01,1.2l2.79,63.62l-0.06,0.36c-0.09,0.54-0.47,0.76-1.14,0.64l-8.43-1.46
		C344.34,132.33,344.01,131.93,344.06,131.25z M333.26,110.61l10.06,1.74c0.36,0.06,0.54-0.06,0.53-0.37l-0.29-29.56
		c-0.03-0.19-0.1-0.3-0.22-0.32c-0.12-0.02-0.23,0.05-0.32,0.23l-10.14,27.76C332.77,110.37,332.9,110.54,333.26,110.61z"/>
	<path class="st0" d="M446.02,108.69l7.1,4.61c0.26,0.17,0.42,0.4,0.48,0.7c0.06,0.3,0.01,0.57-0.16,0.83l-33.85,52.19
		c-0.17,0.26-0.4,0.42-0.7,0.48c-0.3,0.06-0.57,0.01-0.83-0.16l-7.1-4.61c-0.26-0.17-0.42-0.4-0.48-0.7
		c-0.06-0.3-0.01-0.57,0.16-0.83l23.64-36.44c0.13-0.21,0.15-0.34,0.05-0.41c-0.1-0.07-0.26-0.06-0.46,0.03l-14.63,7.84
		c-0.53,0.25-0.89,0.3-1.1,0.17c-0.21-0.13-0.31-0.49-0.29-1.07l1.19-16.55c0-0.22-0.06-0.37-0.16-0.43c-0.1-0.07-0.22,0-0.35,0.21
		l-23.63,36.44c-0.17,0.26-0.4,0.42-0.7,0.48c-0.3,0.06-0.57,0.01-0.83-0.16l-7.1-4.61c-0.26-0.17-0.42-0.4-0.48-0.7
		c-0.06-0.3-0.01-0.57,0.16-0.83l33.85-52.19c0.17-0.26,0.4-0.42,0.7-0.48c0.3-0.06,0.57-0.01,0.83,0.16l7.1,4.61
		c0.51,0.33,0.77,0.79,0.76,1.37l-1.07,18.06c0.02,0.31,0.18,0.41,0.46,0.3l15.9-8.45C444.98,108.31,445.5,108.36,446.02,108.69z"/>
	<path class="st0" d="M451.17,203.1c0.06-0.3,0.21-0.53,0.47-0.71l20.8-14.09l0.41-0.39l22.84-30.93c0.07-0.12,0.18-0.23,0.33-0.33
		c0.46-0.31,0.87-0.19,1.25,0.37l4.96,7.31c0.38,0.56,0.36,1.09-0.04,1.58l-15.71,18.98c-0.12,0.15-0.14,0.28-0.07,0.38
		c0.07,0.1,0.2,0.13,0.38,0.07l23.45-7.55c0.61-0.19,1.11-0.01,1.48,0.55l4.95,7.31c0.21,0.3,0.27,0.59,0.2,0.87
		c-0.08,0.27-0.32,0.48-0.75,0.62l-37.19,9.75l-0.51,0.23l-20.8,14.09c-0.26,0.17-0.53,0.23-0.83,0.17
		c-0.3-0.06-0.53-0.21-0.71-0.47l-4.75-7.01C451.17,203.67,451.11,203.4,451.17,203.1z"/>
	<g>
		<path class="st0" d="M431.77,185.97c1.8-1.71,3.18-3.88,4.71-5.82c1.55-1.97,3.14-3.91,4.71-5.86c3.15-3.9,6.38-7.73,9.72-11.48
			c6.65-7.45,14.05-14.33,21.51-20.95c1.16-1.03-0.54-2.72-1.7-1.7c-7.66,6.68-14.73,13.88-21.77,21.2
			c-3.46,3.61-6.84,7.3-10.11,11.08c-1.64,1.89-3.21,3.84-4.76,5.8c-1.54,1.94-3.31,3.86-4.46,6.06
			C428.88,185.68,430.61,187.07,431.77,185.97L431.77,185.97z"/>
	</g>
	<g>
		<path class="st0" d="M368.95,139.5c0.15-0.12,0.3-0.24,0.45-0.35c-0.09,0.07-0.18,0.14-0.27,0.21c0.18-0.13,0.38-0.24,0.56-0.36
			c0.31-0.2,0.56-0.45,0.83-0.7c0.17-0.16,0.36-0.31,0.53-0.48c0.3-0.3,0.45-0.69,0.63-1.06c0.15-0.23,0.23-0.48,0.24-0.75
			c0.06-0.27,0.05-0.54-0.04-0.8c-0.13-0.47-0.49-0.97-0.93-1.2c-0.47-0.25-1.03-0.37-1.55-0.2c-0.16,0.07-0.32,0.14-0.48,0.2
			c-0.3,0.18-0.54,0.42-0.72,0.72c-0.08,0.1-0.15,0.2-0.23,0.31c-0.04,0.05-0.07,0.09-0.11,0.14c-0.1,0.13-0.12,0.19-0.19,0.37
			c-0.07,0.16-0.12,0.26-0.15,0.41c-0.01,0.06-0.02,0.11-0.03,0.17c-0.03,0.11-0.06,0.22-0.09,0.33c-0.1,0.35-0.18,0.68-0.22,1.05
			c-0.02,0.22-0.04,0.43-0.05,0.65c0.02-0.12,0.03-0.24,0.05-0.36c-0.03,0.21-0.07,0.41-0.11,0.61c-0.05,0.26-0.05,0.49,0.06,0.74
			c0.09,0.22,0.25,0.43,0.46,0.54c0.18,0.09,0.37,0.15,0.57,0.15C368.47,139.85,368.72,139.69,368.95,139.5L368.95,139.5z"/>
	</g>
	<g>
		<path class="st0" d="M477.77,136.16c0.36-0.31,0.64-0.72,0.92-1.1c1.03-1.41,2.28-2.63,3.53-3.84
			c5.14-4.97,10.36-9.86,15.79-14.51c0.59-0.51,1.21-1.04,1.49-1.77s0.08-1.7-0.64-2.02c-0.83-0.37-1.73,0.3-2.39,0.93
			c-1.25,1.19-2.5,2.37-3.75,3.56c-3.47,3.29-6.97,6.56-10.05,10.22c-1.15,1.36-3.03,3.72-4.74,5.39c-0.59,0.58-2.06,1.38-2.29,2.2
			c-0.37,1.28,1.14,1.68,2,1.05C477.68,136.23,477.73,136.2,477.77,136.16z"/>
	</g>
	<g>
		<path class="st0" d="M373.98,128.4c1.09-3.39,3.32-7.07,5.01-10.4c2.5-4.91,5.03-9.81,7.45-14.76c0.74-1.5,1.46-3.02,2.23-4.5
			c1.03-1.99-1.95-3.75-3.01-1.76c-4.5,8.39-8.47,17.13-12.19,25.89c-0.67,1.58-1.46,3.19-1.9,4.86
			C371.14,129.3,373.49,129.93,373.98,128.4L373.98,128.4z"/>
	</g>
	<path class="st0" d="M565.25,267.33c-9.68,0.01-19.35,0.05-29.03,0.15c-7.33,0.08-14.66,0.19-22,0.36
		c-5.31,0.12-10.62,0.28-15.92,0.49c-4.99,0.2-10.09,0.25-15.1,0.79c-5.01,0.54-9.95,1.79-14.8,3.11c-3.38,0.92-6.68,2.1-9.91,3.45
		c-1.48,0.62-2.95,1.29-4.43,1.91c-1.46,0.6-2.84,1.34-4.44,0.92c-0.42-0.11-2.88-3.35-2.91-3.32c3.62-4.88,9.01-13.69,2.98-18.95
		c-1.86-1.63-4.9-2.65-7.37-2.47c-2.54,0.19-4.7,1.89-6.24,3.8c-1.82,2.27-2.84,6.01-2.38,8.9c0.37,2.34,1.67,4.45,3.03,6.34
		c0.33,0.46,0.67,0.9,1.01,1.36c0.47,0.63,0.51,0.74-0.04,1.32c-0.76,0.8-1.58,1.56-2.41,2.29c-3.33,2.92-7.1,5.33-11.15,7.15
		c-5.49,2.47-11.49,3.84-17.52,3.91c-4.73,0.06-9.85-0.85-13.06-4.32c-1.32-1.42-2.46-3.6-3.1-5.41c-0.43-1.22-0.19-1.48,1-1.87
		c1.2-0.4,2.41-0.78,3.62-1.15c2.51-0.76,5.04-1.47,7.44-2.52c4.28-1.89,8.08-4.94,10.65-8.85c0.53-0.81,1.02-1.67,1.26-2.6
		c0.25-0.94,0.24-1.97-0.19-2.84c-1.92-3.9-7.5-3.26-10.87-2.3c-4.06,1.15-7.86,3.22-11.03,6.01c-1.77,1.56-3.35,3.35-4.66,5.31
		c-1.14,1.71-2.12,3.52-3.35,5.17c-1.2,1.62-2.77,3-4.21,4.41c-2.96,2.91-6.1,5.69-9.73,7.72c-3.32,1.86-7.02,3.05-10.8,3.51
		c-1.83,0.22-3.45,0.27-5.2-0.34c-1.78-0.61-3.36-1.73-4.72-3.01c-1.71-2.68-5.11-7.37-2.92-10.56c2.83-4.12,5.65-8.23,8.27-12.49
		c9.01-14.67,15.99-30.6,20.65-47.17c0.85-3.01,1.62-6.06,1.91-9.18c0.18-1.93,0.33-4.24-1.12-5.76c-1.83-1.93-4.96-0.67-6.73,0.8
		c-1.07,0.88-1.89,2.03-2.67,3.18c-5.12,7.45-9.59,15.34-13.35,23.57c-2.86,6.27-5.3,12.72-7.74,19.17
		c-1.45,3.82-2.89,7.64-4.07,11.55c-0.76,2.52-1.4,5.08-1.93,7.67c-0.26,1.29-0.46,2.6-0.7,3.89c-0.2,1.05-0.85,1.41-1.64,2.12
		c-3.31,2.95-7.06,5.68-11.32,7.04c-1.57,0.5-3.21,0.8-4.87,0.8c-5.61,0-9.54-2.6-11.76-7.8c-0.57-2.76-1.13-5.52-1.82-8.25
		c-0.48-1.88-1.39-3.7-2.93-4.93c-1.65-1.32-4.3-1.62-6.34-1.62c-2.36-0.01-4.93,0.28-7.16,1.05c-2.15,0.75-4.15,1.84-5.94,3.24
		c-0.59,0.46-1.16,0.95-1.7,1.47c-1.95,1.85-3.64,3.91-4.92,6.24c-1.46,2.65-1.98,4.42-2.94,6.92c-0.88,2.29-2.44,4.77-3.61,6.93
		c-0.71,1.31-1.62,2.5-2.53,3.69c-2.32,3.01-6.08,6.26-10.12,6.26h-1.07c-0.74,0-1.43-0.15-2.05-0.45c-1.9-0.8-3.79-3.33-5.66-7.58
		c-2.76-7.37-6.19-11.05-10.29-11.05c-3.17,0-6.14,1.89-8.19,4.2c-1.06,1.19-1.8,2.62-2.53,4.03c-0.38,0.73-0.72,1.48-1.14,2.18
		c-0.22,0.37-0.45,0.74-0.73,1.07c-0.25,0.3-0.87,0.98-0.78,0.13c0.25-2.46,0.62-4.9,1.12-7.32c0.43-2.08,1.58-3.92,2.84-5.59
		c1.65-2.26,3.4-4.44,5.16-6.61c0.74-0.92,1.49-1.83,2.24-2.74c6.68-8.26,11.53-14.84,14.53-19.74
		c9.03-15.39,13.55-26.04,13.55-31.95c0-3.91-4.69-4.47-7.45-2.91c-1.55,0.88-2.77,2.25-3.92,3.61
		c-4.46,5.28-8.46,10.95-11.95,16.92c-1.75,3-3.37,6.08-4.86,9.22c-0.73,1.55-1.29,3.26-2.12,4.76c-0.7,1.26-1.32,2.56-1.92,3.88
		c-2.9,6.32-5.67,12.7-8.37,19.11c-0.08,0.18-0.15,0.36-0.23,0.54c-0.47,0.92-0.89,1.92-1.28,2.96c-6.24,1.05-12.56,1.66-18.89,1.87
		c-1.84,0.06-3.69,0.08-5.5-0.23c-2.06-0.36-4.01-1.15-5.87-2.07c-0.95-0.47-1.86-1.06-2.82-1.5c-0.56-0.26-1.42-0.62-2.04-0.62
		c-0.98,0-1.92,0.43-2.81,1.29c-0.62,3.92-1.47,7.86-2.54,11.81c-3.36,10.28-6.92,15.42-10.69,15.42c-3.18,0-4.77-2.72-4.77-8.15
		c0,0,0-1.07,0-1.07c0-2.68,0.72-5.33,1.24-7.95c0.21-1.04,0.13-1.87-0.48-2.75c-0.54-0.77-1.42-1.47-2.41-1.47
		c-1.72,0-3.89,2.75-6.51,8.24c-5.56,9.12-10.13,13.68-13.73,13.68l-0.71-0.13c-2.88-0.8-4.32-3.95-4.32-9.45
		c0-1.54,0.22-3.18,0.67-4.9c1.84-7.87,3.91-12.55,6.19-14.04c3.53-1.07,6.64-2.27,9.31-3.61c5.73-3.51,8.6-6.57,8.6-9.18
		c0-2.14-1.69-3.58-5.08-4.32c-4.04,0-8.51,2.67-13.41,8.02c-1.44,1.58-2.91,3.28-4.64,4.55c-0.82,0.6-1.84,0.75-2.81,1.02
		c-1.49,0.41-2.99,0.8-4.49,1.16c-2.15,0.52-4.32,0.99-6.52,1.29c-3.83,0.53-7.7,0.55-11.55,0.48c-2.57-0.05-5.15,0.02-7.73,0.03
		c-5.05,0.03-10.09,0.05-15.14,0.08c-5.35,0.03-10.7,0.06-16.05,0.08c-4.98,0.03-9.95,0.05-14.93,0.08
		c-3.92,0.02-7.85,0.04-11.77,0.06c-2.19,0.01-4.39,0.02-6.58,0.03c-0.24,0-0.48,0-0.73,0c-1.71,0-3.78-0.82-3.81,0.89
		c-0.04,1.74,0.86,1.14,2.59,1.18c1.32,0.04,2.65,0.08,3.97,0.12c3.46,0.11,6.92,0.21,10.38,0.32c4.82,0.15,9.64,0.29,14.46,0.44
		c5.41,0.16,10.83,0.33,16.24,0.49c5.23,0.16,10.47,0.32,15.7,0.48c5.52,0.17,11.04,0.34,16.56,0.54c1.71,0.06,3.43,0.12,5.14,0.06
		c2.25-0.08,4.49-0.38,6.71-0.7c0.53-0.08,6.3-0.89,6.31-0.82c0.03,0.93-0.51,2.07-0.83,2.94c-0.36,0.98-0.76,1.94-1.12,2.92
		c-1,2.76-1.61,5.66-1.83,8.58c-0.35,4.8,0.51,9.96,3.7,13.56c1.29,1.45,2.96,2.61,4.84,3.09c1.97,0.5,4.09,0.24,6.01-0.43
		c2.68-0.92,5.03-2.58,7.09-4.5c1.05-0.98,2.04-2.03,2.99-3.11c0.49-0.55,0.96-1.11,1.44-1.68c0.32-0.38,0.76-1.18,1.24-1.32
		c-0.02,0.18,0,0.36,0.05,0.53c0.2,0.66,0.4,1.31,0.61,1.97c0.55,1.77,1.11,3.59,2.25,5.06c2.94,3.79,8.87,3.79,12.8,1.66
		c2.31-1.25,4.01-3.38,5.56-5.5c1.82-2.49,2.98-5.24,4-8.14c0.74-2.1,1.43-3.96,2.04-6.35c0.21-0.81,0.45-4.87,1.9-4.5
		c1.81,0.46,3.59,0.94,5.44,1.23c3.09,0.48,6.23,0.64,9.36,0.6c2.75-0.04,5.5-0.24,8.23-0.5c1.35-0.13,2.7-0.28,4.05-0.44
		c0.3-0.04,3.66-0.27,3.68-0.36c-1,4.66-1.52,10.13-1.52,16.46c0.12,2.11,0.36,4.28,0.71,6.51c0.29,1.79,0.3,3.68,1.43,5.2
		c0.95,1.28,2.42,1.4,3.81,0.77c0.42-0.19,0.81-0.49,1.03-0.89c0.41-0.74,0.47-1.91,0.63-2.75c0.14-0.72,0.28-1.44,0.41-2.16
		c0.26-1.37,0.5-2.74,0.77-4.11c0.16-0.78,0.56-1.54,0.85-2.29c1.11-2.85,2.31-5.69,3.87-8.33c1.02-1.72,2.73-4.61,5.06-4.61h0.18
		c0.06,0,0.19,0.06,0.4,0.18c0.62,0,1.93,1.86,3.92,5.57c3.15,8.76,7.89,13.15,14.22,13.15c5.91,0,10.9-2.35,14.97-7.04
		c1.72-2.43,3.21-4.8,4.45-7.12c-0.11,0.2,1.17,1.47,1.34,1.64c0.5,0.5,1.05,0.95,1.65,1.34c1.18,0.77,2.53,1.27,3.92,1.47
		c3.11,0.45,6.3-0.7,8.94-2.29c1.06-0.64,2.06-1.38,2.99-2.2c1.53-1.37,2.87-2.95,4-4.66c0.57-0.86,1.09-1.75,1.56-2.66
		c0.14-0.26,1.03-2.54,1.24-2.54l0.36,0.22c3.53,7.22,9.28,10.83,17.25,10.83h0.71c0.71,0,1.72-0.06,3.03-0.18
		c5.95-1.52,10.82-3.93,14.63-7.22c0.08,0.39,0.16,0.79,0.25,1.2c2.97,9.83,8.91,14.75,17.82,14.75c6.65,0,13.29-2.39,19.92-7.17
		c1.29-1.07,2.57-2.14,3.84-3.24c0.53-0.46,2.71-2.84,3.24-2.6c0.42,0.19,1.03,1.66,1.32,2.08c0.46,0.68,0.95,1.34,1.47,1.98
		c1.02,1.28,2.14,2.49,3.34,3.61c0.72,0.67,1.46,1.31,2.29,1.83c1.01,0.63,2.11,1.09,3.24,1.47c9.11,3.07,19.19,1.38,28.22-1.92
		c3.25-1.19,6.46-2.6,9.35-4.52c1.48-0.98,2.71-2.16,4.05-3.3c1.38-1.17,2.8-2.31,4.11-3.57c1.88,1.98,2.82,3.09,2.82,3.33v0.18
		c0,0.24-0.28,0.61-0.85,1.11c-9.65,8.35-14.48,15.7-14.48,22.06c0,3.91,3.13,6.85,6.74,7.75c4.22,1.06,9.27-1.06,12.88-3.18
		c4.7-2.77,7.72-8.44,8.34-13.74c0.37-3.14-0.62-5.72-1.54-8.65c-0.09-0.28-1.36-3.73-1.2-3.83c4.09-2.78,8.81-4.6,13.56-5.89
		c5.13-1.39,10.32-2.54,15.56-3.43c3.06-0.52,6.12-0.94,9.2-1.29c3.07-0.35,6.3-0.93,9.39-0.93c5.76-0.5,11.53-0.91,17.29-1.27
		c7.9-0.49,15.81-0.88,23.73-1.22c7.15-0.3,14.32-0.38,21.46-0.78C566.76,269.32,568.49,267.33,565.25,267.33z M393.84,268.82
		c0.39-0.39,0.76-0.74,1.01-1c1.12-1.13,2.35-2.15,3.68-3.04c1.49-1,3.1-1.82,4.79-2.45c0.49-0.18,4.64-1.64,4.64-0.79
		c0,0.87-0.97,1.74-1.52,2.3c-0.98,0.99-2.01,1.95-3.11,2.8c-1.69,1.3-3.56,2.37-5.55,3.14c-1.47,0.58-4.08,1.99-5.67,1.58
		C392.16,270.62,393.04,269.63,393.84,268.82z M244.2,239.83c1.67-3.25,3.47-6.43,5.38-9.55c1.65-2.7,3.4-5.35,5.22-7.94
		c0.93-1.32,1.88-2.62,2.85-3.91c0.42-0.56,1.79-3.07,2.57-3.07c0.07,0,0.11-0.02,0.13,0c-0.92,3.51-2.38,7.37-4.37,11.59
		c-4.19,8.91-8.84,16.64-13.95,23.17c-1.84,2.76-3.67,5.58-5.8,8.14c1.49-4.89,3.71-9.68,5.9-14.28
		C242.8,242.59,243.49,241.21,244.2,239.83z M160.93,254.76c0.34,0.21,0.59,0.59,0.56,0.99c-0.02,0.32-0.2,0.6-0.4,0.86
		c-0.56,0.7-1.28,1.25-2.05,1.72c-1.03,0.64-2.11,1.24-3.24,1.7c-1.18,0.49-2.4,0.87-3.62,1.24c0.09-0.03,0.24-0.28,0.3-0.36
		c0.11-0.14,0.22-0.27,0.33-0.41c0.2-0.25,0.39-0.5,0.59-0.75c0.36-0.47,0.72-0.93,1.11-1.38c0.86-0.98,1.89-1.77,2.96-2.51
		c0.26-0.18,0.51-0.35,0.77-0.52c0.38-0.25,0.77-0.51,1.2-0.65s0.92-0.18,1.34,0C160.84,254.71,160.89,254.73,160.93,254.76z
		 M301.45,264.17c0,1.07-0.62,3.12-1.87,6.15c-4.37,9.06-8.66,13.59-12.88,13.59h-0.89c-2.58-0.77-3.88-2.66-3.88-5.66
		c0-1.84,0.7-3.77,2.09-5.79c3.53-6.33,8.42-9.43,14.66-9.31c1.84,0.09,2.76,0.07,2.76-0.04V264.17z M370.76,208.07h-0.06
		C370.7,207.81,370.72,207.83,370.76,208.07z M345.88,266.18c0.65-2.79,1.46-5.66,2.41-8.6c5.08-14.65,9.74-25.99,13.99-34.05
		c4.28-8.3,7.13-13.25,8.56-14.87c0.01,0.1,0.02,0.18,0.04,0.3c0,1.66-1.17,6.34-3.52,14.04c-5.29,14.11-10.01,24.73-14.17,31.86
		c-3.59,6.27-5.99,10.21-7.2,11.84C345.97,266.46,345.93,266.27,345.88,266.18z M443.16,269.85c-1.2,1.38-2.4-1.68-2.8-2.59
		c-0.36-0.8-0.64-1.65-0.66-2.53c-0.03-1.1,0.37-2.18,0.9-3.15c0.4-0.72,0.92-1.43,1.69-1.71c1.26-0.45,3.36,0.27,3.91,1.56
		c0.24,0.55,0.18,1.18,0.07,1.77c-0.38,2.02-1.38,3.86-2.43,5.63C443.7,269.06,443.45,269.51,443.16,269.85z M448.91,302.78
		c-0.54,0.68-1.2,1.27-1.87,1.83c-2.41,2-5.2,3.76-8.32,4.02c-0.61,0.05-1.25,0.03-1.78-0.28c-0.89-0.53-1.11-1.72-1.09-2.76
		c0.05-2.62,1.09-5.15,2.53-7.34c1.33-2.03,3.05-3.73,4.65-5.53c1.6-1.8,3.29-3.4,5.37-4.65c1.55-0.93,2.11,2.7,2.34,3.69
		c0.58,2.5,0.49,4.95-0.17,7.43c-0.31,1.16-0.73,2.31-1.42,3.29C449.07,302.58,448.99,302.68,448.91,302.78z"/>
	<g>
		<path class="st0" d="M467.49,237.87c3.86-0.09,7.7-1.65,11.33-2.87c3.7-1.24,7.48-2.5,11.03-4.13c1.56-0.72,0.41-2.98-1.12-2.65
			c-3.74,0.82-7.47,2.03-11.12,3.2c-3.59,1.15-7.58,2.06-10.74,4.16C465.9,236.23,466.21,237.9,467.49,237.87L467.49,237.87z"/>
	</g>
	<g>
		<path class="st0" d="M188.74,57.87c0.76,2.27,2.2,4.3,3.37,6.37c1.23,2.18,2.5,4.34,3.68,6.55c0.58,1.08,1.18,2.14,1.75,3.21
			c0.58,1.08,0.88,2.28,1.35,3.41c0.94,2.27,1.79,4.8,3.22,6.8c0.96,1.35,2.92,0.52,2.63-1.11c-0.43-2.43-1.73-4.8-2.88-6.97
			c-0.57-1.08-1.31-2.06-1.86-3.14c-0.58-1.15-1.09-2.33-1.68-3.47c-1.12-2.16-2.3-4.32-3.57-6.4c-1.28-2.12-2.59-4.5-4.43-6.18
			C189.67,56.35,188.42,56.92,188.74,57.87L188.74,57.87z"/>
	</g>
	<g>
		<path class="st0" d="M211.21,92.42c-0.04-0.06-0.07-0.14-0.12-0.2c-0.07-0.08,0.04,0.12-0.01-0.02c-0.05-0.14-0.11-0.25-0.2-0.37
			c-0.4-0.49-1.15-0.06-1.18,0.49c0,0.11,0.04,0.24,0.07,0.35c0.03-0.19,0.05-0.39,0.08-0.58c-0.26,0.38-0.09,1.04,0.03,1.46
			c0.12,0.41,0.27,0.8,0.44,1.19c0.08,0.18-0.17-0.44-0.07-0.17c0.07,0.2,0.15,0.4,0.24,0.59c0.15,0.32,0.32,0.63,0.47,0.95
			c0.33,0.68,0.65,1.37,1.01,2.03c0.15,0.29,0.33,0.56,0.51,0.82c0.45,0.64,0.92,1.3,1.79,1.27c1.25-0.04,1.81-1.4,1.22-2.41
			c-0.18-0.31-0.38-0.61-0.56-0.92c-0.38-0.65-0.76-1.31-1.12-1.97c-0.34-0.63-0.65-1.28-1.12-1.83c-0.29-0.33-0.63-0.59-0.98-0.86
			c-0.39-0.3-0.93-0.64-1.42-0.52c0.19,0.03,0.39,0.05,0.58,0.08c-0.03-0.02-0.06-0.05-0.09-0.06c-0.03-0.02-0.06-0.06,0.04,0.03
			c0.16,0.16-0.08-0.15,0.16,0.18c-0.26,0.34-0.52,0.67-0.78,1.01c-0.16-0.07-0.21-0.1-0.15-0.06c0.01,0,0.02,0.01,0.02,0.01
			c0.01,0,0.06,0.04,0.06,0.04c0.04,0.02,0.03,0.02-0.01-0.01c-0.05-0.04-0.05-0.03,0,0.01c0.03,0.06,0.11,0.12,0.16,0.17
			C210.75,93.62,211.55,93,211.21,92.42L211.21,92.42z"/>
	</g>
	<g>
		<path class="st0" d="M218.19,109.53c-0.44,1.19,0.01,2.75,0.41,3.9c0.46,1.34,1.11,2.59,1.8,3.82c1.42,2.56,2.84,5.13,4.28,7.69
			c1.41,2.52,2.83,5.04,4.22,7.56c0.68,1.23,1.35,2.46,2.02,3.69c0.75,1.38,1.31,2.96,2.28,4.18c1.4,1.75,4.31-0.14,3.68-2.14
			c-0.44-1.41-1.47-2.72-2.18-4.03c-0.67-1.23-1.35-2.46-2.03-3.68c-1.37-2.47-2.76-4.93-4.15-7.39c-1.38-2.44-2.77-4.88-4.16-7.31
			c-0.66-1.16-1.34-2.28-2.05-3.41c-0.69-1.1-1.2-2.46-2.04-3.43C219.6,108.23,218.49,108.72,218.19,109.53L218.19,109.53z"/>
	</g>
	<g>
		<path class="st0" d="M499.13,226.12c4.74-1.06,9.38-2.71,14.04-4.09c4.8-1.42,9.55-3.02,14.33-4.52c9.43-2.95,18.9-5.85,28.48-8.3
			c1.93-0.49,1.09-3.56-0.82-2.99c-9.59,2.88-19.25,5.53-28.86,8.35c-9.4,2.76-19.15,5.32-28.13,9.25
			C496.81,224.42,497.81,226.41,499.13,226.12L499.13,226.12z"/>
	</g>
	<g>
		<path class="st0" d="M104.53,119.48c4.31,4.01,8.81,7.81,13.25,11.68c4.44,3.87,8.7,7.91,13.03,11.89
			c4.33,3.98,8.61,8,12.97,11.95c2.13,1.93,4.25,3.87,6.35,5.84c1.05,0.98,2.1,1.96,3.14,2.95c1.04,1,1.94,2.11,2.96,3.14
			c2.29,2.31,4.87,4.38,7.29,6.55c2.53,2.27,5.07,4.54,7.61,6.79c0.92,0.81,2.31,0.91,3.22,0c0.83-0.83,0.93-2.4,0-3.22
			c-4.43-3.88-8.89-7.73-13.34-11.58c-2.24-1.94-4.69-3.59-6.98-5.48c-2.27-1.88-4.55-3.75-6.79-5.67
			c-8.85-7.59-17.98-14.86-26.73-22.56c-5-4.41-9.9-8.96-15.02-13.23C104.83,117.97,103.88,118.88,104.53,119.48L104.53,119.48z"/>
	</g>
	<g>
		<path class="st0" d="M407.47,54.22c-2.8,6.32-5.41,12.73-8.51,18.92c-1.54,3.08-3.1,6.15-4.75,9.17
			c-0.81,1.49-1.63,2.97-2.49,4.43c-0.9,1.54-2.24,3.12-2.75,4.83c-0.53,1.77,1.81,3.1,3.08,1.79c1.24-1.27,1.96-3.24,2.79-4.8
			c0.79-1.5,1.59-2.99,2.35-4.51c1.59-3.14,3.1-6.31,4.46-9.55c2.73-6.46,5.29-12.99,6.95-19.81
			C408.78,54.04,407.77,53.54,407.47,54.22L407.47,54.22z"/>
	</g>
	<g>
		<path class="st0" d="M49.41,216.14c0.76,0.53,1.36,1,2.23,1.34c0.85,0.33,1.74,0.61,2.61,0.88c1.75,0.54,3.5,1.08,5.26,1.6
			c3.57,1.06,7.2,2.01,10.68,3.36c6.9,2.67,13.99,4.89,21.02,7.18c1.93,0.63,3.86,1.26,5.79,1.89c2.07,0.67,4.21,1.63,6.37,1.85
			c2.09,0.21,2.78-2.93,1.05-3.87c-1.63-0.88-3.6-1.23-5.37-1.75c-1.76-0.51-3.52-1.02-5.28-1.53c-3.58-1.04-7.18-2.02-10.76-3.06
			c-3.52-1.03-7.04-2.04-10.6-2.9c-3.64-0.88-7.18-1.97-10.75-3.11c-1.93-0.62-3.87-1.23-5.81-1.82c-1-0.31-2-0.6-3.02-0.88
			c-0.51-0.14-1.02-0.24-1.54-0.31c-0.54-0.08-1.05,0.02-1.6,0.03C49.08,215.02,48.93,215.81,49.41,216.14L49.41,216.14z"/>
	</g>
	<g>
		<path class="st0" d="M110.83,237.57c-0.05-0.04-0.11-0.08-0.16-0.11c0.15,0.14,0.31,0.25,0.49,0.35c0.29,0.17,0.61,0.29,0.92,0.41
			c0.52,0.21,1.04,0.41,1.58,0.56c1.13,0.33,2.27,0.64,3.39,0.98c2.31,0.7,4.63,1.41,6.92,2.17c2.24,0.74,4.45,1.54,6.65,2.39
			c1.1,0.42,2.19,0.86,3.28,1.31c1.21,0.5,2.38,1.14,3.69,1.28c1.83,0.2,2.9-2.53,1.53-3.69c-1.04-0.89-2.41-1.29-3.67-1.8
			c-1.21-0.48-2.42-0.95-3.64-1.4c-2.38-0.88-4.78-1.71-7.21-2.47c-2.37-0.74-4.75-1.42-7.16-2c-1.29-0.31-2.58-0.65-3.9-0.81
			c-1.23-0.15-2.31-0.22-3.29,0.65C109.57,236,109.87,237.42,110.83,237.57L110.83,237.57z"/>
	</g>
	<g>
		<path class="st0" d="M301.81,34.11c-0.3,5.88-0.3,11.77-0.41,17.65c-0.11,5.9-0.46,11.77-0.72,17.65
			c-0.26,5.89-0.58,11.77-0.8,17.65c-0.11,2.88-0.23,5.75-0.39,8.63c-0.08,1.44-0.15,2.88-0.24,4.32c-0.09,1.45-0.35,2.87-0.5,4.32
			c-0.33,3.23-0.22,6.56-0.32,9.81c-0.11,3.4-0.21,6.8-0.3,10.2c-0.08,2.93,4.49,2.93,4.55,0c0.12-5.88,0.19-11.77,0.28-17.65
			c0.04-2.95-0.27-5.87-0.3-8.83c-0.03-2.94-0.05-5.88-0.03-8.83c0.11-11.64-0.2-23.28,0.07-34.92c0.15-6.67,0.49-13.34,0.46-20.01
			C303.16,33.23,301.86,33.24,301.81,34.11L301.81,34.11z"/>
	</g>
</g>
<g>
	<path d="M-521.63,224.55c-0.3,0.06-0.57,0-0.83-0.17l-51.62-34.71c-0.25-0.17-0.41-0.4-0.47-0.7c-0.06-0.3,0-0.57,0.17-0.83
		l8.78-13.06c2.94-4.38,6.62-6.99,11.03-7.83c4.41-0.84,8.83,0.23,13.26,3.2l24.29,16.33c4.43,2.98,7.09,6.67,7.97,11.07
		c0.88,4.4-0.15,8.79-3.09,13.17l-8.78,13.06C-521.09,224.33-521.33,224.49-521.63,224.55z M-522.96,210.62l3-4.63
		c1.13-1.68,1.37-3.5,0.72-5.45c-0.65-1.95-2.07-3.7-4.28-5.26l-23.22-15.61c-2.29-1.54-4.46-2.24-6.51-2.11
		c-2.05,0.14-3.68,1.1-4.87,2.88l-3.03,4.51c-0.17,0.26-0.13,0.47,0.12,0.64l37.42,25.16
		C-523.35,210.91-523.13,210.87-522.96,210.62z"/>
	<path d="M-456.89,156.62l-21.25-17.53c-0.24-0.13-0.43-0.15-0.59-0.05l-4.04,2.73c-0.26,0.17-0.3,0.38-0.12,0.64l14.61,21.67
		c0.17,0.26,0.23,0.53,0.17,0.83c-0.06,0.3-0.22,0.53-0.47,0.7l-7.02,4.73c-0.26,0.17-0.53,0.23-0.83,0.17
		c-0.3-0.06-0.53-0.21-0.7-0.47l-34.78-51.58c-0.17-0.25-0.23-0.53-0.17-0.83c0.06-0.3,0.21-0.53,0.47-0.7l14.34-9.67
		c2.7-1.82,5.51-2.77,8.45-2.86c2.93-0.09,5.77,0.66,8.51,2.25s5.14,3.92,7.2,6.97c2.13,3.15,3.35,6.29,3.67,9.4
		c0.32,3.11-0.22,5.99-1.61,8.64c-0.17,0.19-0.14,0.39,0.08,0.61l22.96,17.92c0.12,0.07,0.23,0.18,0.33,0.33
		c0.31,0.46,0.18,0.88-0.38,1.25l-7.32,4.94C-455.89,157.06-456.39,157.03-456.89,156.62z M-498.28,119.6l10.24,15.18
		c0.17,0.26,0.38,0.3,0.64,0.12l4.65-3.14c1.83-1.23,2.84-2.95,3.02-5.15c0.18-2.2-0.55-4.51-2.19-6.96c-1.65-2.44-3.53-4-5.65-4.68
		c-2.12-0.68-4.1-0.4-5.93,0.83l-4.65,3.14C-498.41,119.13-498.45,119.34-498.28,119.6z"/>
	<path d="M-395.9,77.39c-0.17,0.26-0.4,0.41-0.7,0.48l-19.43,4.2c-0.3,0.07-0.42,0.25-0.35,0.55l3.67,17
		c0.07,0.3,0.25,0.42,0.55,0.35l11.51-2.49c0.3-0.07,0.58-0.01,0.83,0.15c0.26,0.17,0.42,0.4,0.48,0.7l1.5,6.93
		c0.07,0.3,0.01,0.58-0.15,0.83c-0.17,0.26-0.4,0.42-0.7,0.48l-11.51,2.49c-0.3,0.06-0.42,0.25-0.35,0.55l3.69,17.09
		c0.07,0.3,0.25,0.42,0.55,0.35l19.43-4.2c0.3-0.06,0.58-0.01,0.83,0.15c0.26,0.17,0.42,0.4,0.48,0.7l1.48,6.84
		c0.07,0.3,0.01,0.58-0.15,0.83c-0.17,0.26-0.4,0.41-0.7,0.48l-29.23,6.32c-0.3,0.06-0.58,0.02-0.83-0.15
		c-0.26-0.16-0.41-0.4-0.48-0.7l-13.14-60.8c-0.07-0.3-0.02-0.58,0.15-0.83c0.16-0.26,0.4-0.41,0.7-0.48l29.23-6.32
		c0.3-0.06,0.58-0.01,0.83,0.15c0.26,0.17,0.42,0.4,0.48,0.7l1.48,6.84C-395.69,76.86-395.74,77.14-395.9,77.39z"/>
	<path d="M-322.2,134.33l-0.07-9.82c0.05-0.3-0.1-0.48-0.46-0.55l-13.24-2.29c-0.36-0.06-0.57,0.06-0.62,0.36l-3.37,9.22
		c-0.18,0.66-0.63,0.92-1.35,0.79l-8.25-1.43c-0.85-0.15-1.11-0.6-0.79-1.35l24.05-58.97c0.24-0.64,0.69-0.91,1.35-0.79l9.61,1.67
		c0.66,0.12,1,0.52,1.01,1.2l2.79,63.62l-0.06,0.36c-0.09,0.54-0.47,0.76-1.14,0.64l-8.43-1.46
		C-321.92,135.41-322.25,135-322.2,134.33z M-333,113.68l10.06,1.74c0.36,0.06,0.54-0.06,0.53-0.37l-0.29-29.56
		c-0.03-0.19-0.1-0.3-0.22-0.32c-0.12-0.02-0.23,0.05-0.32,0.23l-10.14,27.76C-333.49,113.44-333.36,113.62-333,113.68z"/>
	<path d="M-220.24,111.77l7.1,4.61c0.26,0.17,0.42,0.4,0.48,0.7c0.06,0.3,0.01,0.57-0.16,0.83l-33.85,52.19
		c-0.17,0.26-0.4,0.42-0.7,0.48c-0.3,0.06-0.57,0.01-0.83-0.16l-7.1-4.61c-0.26-0.17-0.42-0.4-0.48-0.7
		c-0.06-0.3-0.01-0.57,0.16-0.83l23.64-36.44c0.13-0.21,0.15-0.34,0.05-0.41c-0.1-0.07-0.26-0.06-0.46,0.03l-14.63,7.84
		c-0.53,0.25-0.89,0.3-1.1,0.17c-0.21-0.13-0.31-0.49-0.29-1.07l1.19-16.55c0-0.22-0.06-0.37-0.16-0.43c-0.1-0.07-0.22,0-0.35,0.21
		l-23.63,36.44c-0.17,0.26-0.4,0.42-0.7,0.48c-0.3,0.06-0.57,0.01-0.83-0.16l-7.1-4.61c-0.26-0.17-0.42-0.4-0.48-0.7
		c-0.06-0.3-0.01-0.57,0.16-0.83l33.85-52.19c0.17-0.26,0.4-0.42,0.7-0.48c0.3-0.06,0.57-0.01,0.83,0.16l7.1,4.61
		c0.51,0.33,0.77,0.79,0.76,1.37l-1.07,18.06c0.02,0.31,0.18,0.41,0.46,0.3l15.9-8.45C-221.28,111.39-220.76,111.43-220.24,111.77z"
		/>
	<path d="M-215.09,206.18c0.06-0.3,0.21-0.53,0.47-0.71l20.8-14.09l0.41-0.39l22.84-30.93c0.07-0.12,0.18-0.23,0.33-0.33
		c0.46-0.31,0.87-0.19,1.25,0.37l4.96,7.31c0.38,0.56,0.36,1.09-0.04,1.58l-15.71,18.98c-0.12,0.15-0.14,0.28-0.07,0.38
		c0.07,0.1,0.2,0.13,0.38,0.07l23.45-7.55c0.61-0.19,1.11-0.01,1.48,0.55l4.95,7.31c0.21,0.3,0.27,0.59,0.2,0.87
		c-0.08,0.27-0.32,0.48-0.75,0.62l-37.19,9.75l-0.51,0.23l-20.8,14.09c-0.26,0.17-0.53,0.23-0.83,0.17
		c-0.3-0.06-0.53-0.21-0.71-0.47l-4.75-7.01C-215.09,206.75-215.15,206.47-215.09,206.18z"/>
	<g>
		<path class="st1" d="M-234.5,189.05c1.8-1.71,3.18-3.88,4.71-5.82c1.55-1.97,3.14-3.91,4.71-5.86c3.15-3.9,6.38-7.73,9.72-11.48
			c6.65-7.45,14.05-14.33,21.51-20.95c1.16-1.03-0.54-2.72-1.7-1.7c-7.66,6.68-14.73,13.88-21.77,21.2
			c-3.46,3.61-6.84,7.3-10.11,11.08c-1.64,1.89-3.21,3.84-4.76,5.8c-1.54,1.94-3.31,3.86-4.46,6.06
			C-237.38,188.76-235.65,190.15-234.5,189.05L-234.5,189.05z"/>
	</g>
	<g>
		<path class="st1" d="M-297.31,142.58c0.15-0.12,0.3-0.24,0.45-0.35c-0.09,0.07-0.18,0.14-0.27,0.21c0.18-0.13,0.38-0.24,0.56-0.36
			c0.31-0.2,0.56-0.45,0.83-0.7c0.17-0.16,0.36-0.31,0.53-0.48c0.3-0.3,0.45-0.69,0.63-1.06c0.15-0.23,0.23-0.48,0.24-0.75
			c0.06-0.27,0.05-0.54-0.04-0.8c-0.13-0.47-0.49-0.97-0.93-1.2c-0.47-0.25-1.03-0.37-1.55-0.2c-0.16,0.07-0.32,0.14-0.48,0.2
			c-0.3,0.18-0.54,0.42-0.72,0.72c-0.08,0.1-0.15,0.2-0.23,0.31c-0.04,0.05-0.07,0.09-0.11,0.14c-0.1,0.13-0.12,0.19-0.19,0.37
			c-0.07,0.16-0.12,0.26-0.15,0.41c-0.01,0.06-0.02,0.11-0.03,0.17c-0.03,0.11-0.06,0.22-0.09,0.33c-0.1,0.35-0.18,0.68-0.22,1.05
			c-0.02,0.22-0.04,0.43-0.05,0.65c0.02-0.12,0.03-0.24,0.05-0.36c-0.03,0.21-0.07,0.41-0.11,0.61c-0.05,0.26-0.05,0.49,0.06,0.74
			c0.09,0.22,0.25,0.43,0.46,0.54c0.18,0.09,0.37,0.15,0.57,0.15C-297.79,142.92-297.54,142.76-297.31,142.58L-297.31,142.58z"/>
	</g>
	<g>
		<path class="st1" d="M-188.49,139.24c0.36-0.31,0.64-0.72,0.92-1.1c1.03-1.41,2.28-2.63,3.53-3.84
			c5.14-4.97,10.36-9.86,15.79-14.51c0.59-0.51,1.21-1.04,1.49-1.77s0.08-1.7-0.64-2.02c-0.83-0.37-1.73,0.3-2.39,0.93
			c-1.25,1.19-2.5,2.37-3.75,3.56c-3.47,3.29-6.97,6.56-10.05,10.22c-1.15,1.36-3.03,3.72-4.74,5.39c-0.59,0.58-2.06,1.38-2.29,2.2
			c-0.37,1.28,1.14,1.68,2,1.05C-188.58,139.31-188.53,139.27-188.49,139.24z"/>
	</g>
	<g>
		<path class="st1" d="M-292.28,131.47c1.09-3.39,3.32-7.07,5.01-10.4c2.5-4.91,5.03-9.81,7.45-14.76c0.74-1.5,1.46-3.02,2.23-4.5
			c1.03-1.99-1.95-3.75-3.01-1.76c-4.5,8.39-8.47,17.13-12.19,25.89c-0.67,1.58-1.46,3.19-1.9,4.86
			C-295.12,132.37-292.78,133-292.28,131.47L-292.28,131.47z"/>
	</g>
	<path class="st2" d="M-101.01,270.41c-9.68,0.01-19.35,0.05-29.03,0.15c-7.33,0.08-14.66,0.19-22,0.36
		c-5.31,0.12-10.62,0.28-15.92,0.49c-4.99,0.2-10.09,0.25-15.1,0.79c-5.01,0.54-9.95,1.79-14.8,3.11c-3.38,0.92-6.68,2.1-9.91,3.45
		c-1.48,0.62-2.95,1.29-4.43,1.91c-1.46,0.6-2.84,1.34-4.44,0.92c-0.42-0.11-2.88-3.35-2.91-3.32c3.62-4.88,9.01-13.69,2.98-18.95
		c-1.86-1.63-4.9-2.65-7.37-2.47c-2.54,0.19-4.7,1.89-6.24,3.8c-1.82,2.27-2.84,6.01-2.38,8.9c0.37,2.34,1.67,4.45,3.03,6.34
		c0.33,0.46,0.67,0.9,1.01,1.36c0.47,0.63,0.51,0.74-0.04,1.32c-0.76,0.8-1.58,1.56-2.41,2.29c-3.33,2.92-7.1,5.33-11.15,7.15
		c-5.49,2.47-11.49,3.84-17.52,3.91c-4.73,0.06-9.85-0.85-13.06-4.32c-1.32-1.42-2.46-3.6-3.1-5.41c-0.43-1.22-0.19-1.48,1-1.87
		c1.2-0.4,2.41-0.78,3.62-1.15c2.51-0.76,5.04-1.47,7.44-2.52c4.28-1.89,8.08-4.94,10.65-8.85c0.53-0.81,1.02-1.67,1.26-2.6
		c0.25-0.94,0.24-1.97-0.19-2.84c-1.92-3.9-7.5-3.26-10.87-2.3c-4.06,1.15-7.86,3.22-11.03,6.01c-1.77,1.56-3.35,3.35-4.66,5.31
		c-1.14,1.71-2.12,3.52-3.35,5.17c-1.2,1.62-2.77,3-4.21,4.41c-2.96,2.91-6.1,5.69-9.73,7.72c-3.32,1.86-7.02,3.05-10.8,3.51
		c-1.83,0.22-3.45,0.27-5.2-0.34c-1.78-0.61-3.36-1.73-4.72-3.01c-1.71-2.68-5.11-7.37-2.92-10.56c2.83-4.12,5.65-8.23,8.27-12.49
		c9.01-14.67,15.99-30.6,20.65-47.17c0.85-3.01,1.62-6.06,1.91-9.18c0.18-1.93,0.33-4.24-1.12-5.76c-1.83-1.93-4.96-0.67-6.73,0.8
		c-1.07,0.88-1.89,2.03-2.67,3.18c-5.12,7.45-9.59,15.34-13.35,23.57c-2.86,6.27-5.3,12.72-7.74,19.17
		c-1.45,3.82-2.89,7.64-4.07,11.55c-0.76,2.52-1.4,5.08-1.93,7.67c-0.26,1.29-0.46,2.6-0.7,3.89c-0.2,1.05-0.85,1.41-1.64,2.12
		c-3.31,2.95-7.06,5.68-11.32,7.04c-1.57,0.5-3.21,0.8-4.87,0.8c-5.61,0-9.54-2.6-11.76-7.8c-0.57-2.76-1.13-5.52-1.82-8.25
		c-0.48-1.88-1.39-3.7-2.93-4.93c-1.65-1.32-4.3-1.62-6.34-1.62c-2.36-0.01-4.93,0.28-7.16,1.05c-2.15,0.75-4.15,1.84-5.94,3.24
		c-0.59,0.46-1.16,0.95-1.7,1.47c-1.95,1.85-3.64,3.91-4.92,6.24c-1.46,2.65-1.98,4.42-2.94,6.92c-0.88,2.29-2.44,4.77-3.61,6.93
		c-0.71,1.31-1.62,2.5-2.53,3.69c-2.32,3.01-6.08,6.26-10.12,6.26h-1.07c-0.74,0-1.43-0.15-2.05-0.45c-1.9-0.8-3.79-3.33-5.66-7.58
		c-2.76-7.37-6.19-11.05-10.29-11.05c-3.17,0-6.14,1.89-8.19,4.2c-1.06,1.19-1.8,2.62-2.53,4.03c-0.38,0.73-0.72,1.48-1.14,2.18
		c-0.22,0.37-0.45,0.74-0.73,1.07c-0.25,0.3-0.87,0.98-0.78,0.13c0.25-2.46,0.62-4.9,1.12-7.32c0.43-2.08,1.58-3.92,2.84-5.59
		c1.65-2.26,3.4-4.44,5.16-6.61c0.74-0.92,1.49-1.83,2.24-2.74c6.68-8.26,11.53-14.84,14.53-19.74
		c9.03-15.39,13.55-26.04,13.55-31.95c0-3.91-4.69-4.47-7.45-2.91c-1.55,0.88-2.77,2.25-3.92,3.61
		c-4.46,5.28-8.46,10.95-11.95,16.92c-1.75,3-3.37,6.08-4.86,9.22c-0.73,1.55-1.29,3.26-2.12,4.76c-0.7,1.26-1.32,2.56-1.92,3.88
		c-2.9,6.32-5.67,12.7-8.37,19.11c-0.08,0.18-0.15,0.36-0.23,0.54c-0.47,0.92-0.89,1.92-1.28,2.96c-6.24,1.05-12.56,1.66-18.89,1.87
		c-1.84,0.06-3.69,0.08-5.5-0.23c-2.06-0.36-4.01-1.15-5.87-2.07c-0.95-0.47-1.86-1.06-2.82-1.5c-0.56-0.26-1.42-0.62-2.04-0.62
		c-0.98,0-1.92,0.43-2.81,1.29c-0.62,3.92-1.47,7.86-2.54,11.81c-3.36,10.28-6.92,15.42-10.69,15.42c-3.18,0-4.77-2.72-4.77-8.15
		c0,0,0-1.07,0-1.07c0-2.68,0.72-5.33,1.24-7.95c0.21-1.04,0.13-1.87-0.48-2.75c-0.54-0.77-1.42-1.47-2.41-1.47
		c-1.72,0-3.89,2.75-6.51,8.24c-5.56,9.12-10.13,13.68-13.73,13.68l-0.71-0.13c-2.88-0.8-4.32-3.95-4.32-9.45
		c0-1.54,0.22-3.18,0.67-4.9c1.84-7.87,3.91-12.55,6.19-14.04c3.53-1.07,6.64-2.27,9.31-3.61c5.73-3.51,8.6-6.57,8.6-9.18
		c0-2.14-1.69-3.58-5.08-4.32c-4.04,0-8.51,2.67-13.41,8.02c-1.44,1.58-2.91,3.28-4.64,4.55c-0.82,0.6-1.84,0.75-2.81,1.02
		c-1.49,0.41-2.99,0.8-4.49,1.16c-2.15,0.52-4.32,0.99-6.52,1.29c-3.83,0.53-7.7,0.55-11.55,0.48c-2.57-0.05-5.15,0.02-7.73,0.03
		c-5.05,0.03-10.09,0.05-15.14,0.08c-5.35,0.03-10.7,0.06-16.05,0.08c-4.98,0.03-9.95,0.05-14.93,0.08
		c-3.92,0.02-7.85,0.04-11.77,0.06c-2.19,0.01-4.39,0.02-6.58,0.03c-0.24,0-0.48,0-0.73,0c-1.71,0-3.78-0.82-3.81,0.89
		c-0.04,1.74,0.86,1.14,2.59,1.18c1.32,0.04,2.65,0.08,3.97,0.12c3.46,0.11,6.92,0.21,10.38,0.32c4.82,0.15,9.64,0.29,14.46,0.44
		c5.41,0.16,10.83,0.33,16.24,0.49c5.23,0.16,10.47,0.32,15.7,0.48c5.52,0.17,11.04,0.34,16.56,0.54c1.71,0.06,3.43,0.12,5.14,0.06
		c2.25-0.08,4.49-0.38,6.71-0.7c0.53-0.08,6.3-0.89,6.31-0.82c0.03,0.93-0.51,2.07-0.83,2.94c-0.36,0.98-0.76,1.94-1.12,2.92
		c-1,2.76-1.61,5.66-1.83,8.58c-0.35,4.8,0.51,9.96,3.7,13.56c1.29,1.45,2.96,2.61,4.84,3.09c1.97,0.5,4.09,0.24,6.01-0.43
		c2.68-0.92,5.03-2.58,7.09-4.5c1.05-0.98,2.04-2.03,2.99-3.11c0.49-0.55,0.96-1.11,1.44-1.68c0.32-0.38,0.76-1.18,1.24-1.32
		c-0.02,0.18,0,0.36,0.05,0.53c0.2,0.66,0.4,1.31,0.61,1.97c0.55,1.77,1.11,3.59,2.25,5.06c2.94,3.79,8.87,3.79,12.8,1.66
		c2.31-1.25,4.01-3.38,5.56-5.5c1.82-2.49,2.98-5.24,4-8.14c0.74-2.1,1.43-3.96,2.04-6.35c0.21-0.81,0.45-4.87,1.9-4.5
		c1.81,0.46,3.59,0.94,5.44,1.23c3.09,0.48,6.23,0.64,9.36,0.6c2.75-0.04,5.5-0.24,8.23-0.5c1.35-0.13,2.7-0.28,4.05-0.44
		c0.3-0.04,3.66-0.27,3.68-0.36c-1,4.66-1.52,10.13-1.52,16.46c0.12,2.11,0.36,4.28,0.71,6.51c0.29,1.79,0.3,3.68,1.43,5.2
		c0.95,1.28,2.42,1.4,3.81,0.77c0.42-0.19,0.81-0.49,1.03-0.89c0.41-0.74,0.47-1.91,0.63-2.75c0.14-0.72,0.28-1.44,0.41-2.16
		c0.26-1.37,0.5-2.74,0.77-4.11c0.16-0.78,0.56-1.54,0.85-2.29c1.11-2.85,2.31-5.69,3.88-8.33c1.02-1.72,2.73-4.61,5.06-4.61h0.18
		c0.06,0,0.19,0.06,0.4,0.18c0.62,0,1.93,1.86,3.92,5.57c3.15,8.76,7.89,13.15,14.22,13.15c5.91,0,10.9-2.35,14.97-7.04
		c1.72-2.43,3.21-4.8,4.45-7.12c-0.11,0.2,1.17,1.47,1.34,1.64c0.5,0.5,1.05,0.95,1.65,1.34c1.18,0.77,2.53,1.27,3.92,1.47
		c3.11,0.45,6.3-0.7,8.94-2.29c1.06-0.64,2.06-1.38,2.99-2.2c1.53-1.37,2.87-2.95,4-4.66c0.57-0.86,1.09-1.75,1.56-2.66
		c0.14-0.26,1.03-2.54,1.24-2.54l0.36,0.22c3.53,7.22,9.28,10.83,17.25,10.83h0.71c0.71,0,1.72-0.06,3.03-0.18
		c5.95-1.52,10.82-3.93,14.63-7.22c0.08,0.39,0.16,0.79,0.25,1.2c2.97,9.83,8.91,14.75,17.82,14.75c6.65,0,13.29-2.39,19.92-7.17
		c1.29-1.07,2.57-2.14,3.84-3.24c0.53-0.46,2.71-2.84,3.24-2.6c0.42,0.19,1.03,1.66,1.32,2.08c0.46,0.68,0.95,1.34,1.47,1.98
		c1.02,1.28,2.14,2.49,3.34,3.61c0.72,0.67,1.46,1.31,2.29,1.83c1.01,0.63,2.11,1.09,3.24,1.47c9.11,3.07,19.19,1.38,28.22-1.92
		c3.25-1.19,6.46-2.6,9.35-4.52c1.48-0.98,2.71-2.16,4.05-3.3c1.38-1.17,2.8-2.31,4.11-3.57c1.88,1.98,2.82,3.09,2.82,3.33v0.18
		c0,0.24-0.28,0.61-0.85,1.11c-9.65,8.35-14.48,15.7-14.48,22.06c0,3.91,3.13,6.85,6.74,7.75c4.22,1.06,9.27-1.06,12.88-3.18
		c4.7-2.77,7.72-8.44,8.34-13.74c0.37-3.14-0.62-5.72-1.54-8.65c-0.09-0.28-1.36-3.73-1.2-3.83c4.09-2.78,8.81-4.6,13.56-5.89
		c5.13-1.39,10.32-2.54,15.56-3.43c3.06-0.52,6.12-0.94,9.2-1.29c3.07-0.35,6.3-0.93,9.39-0.93c5.76-0.5,11.53-0.91,17.29-1.27
		c7.9-0.49,15.81-0.88,23.73-1.22c7.15-0.3,14.32-0.38,21.46-0.78C-99.5,272.4-97.77,270.41-101.01,270.41z M-272.42,271.89
		c0.39-0.39,0.76-0.74,1.01-1c1.12-1.13,2.35-2.15,3.68-3.04c1.49-1,3.1-1.82,4.79-2.45c0.49-0.18,4.64-1.64,4.64-0.79
		c0,0.87-0.97,1.74-1.52,2.3c-0.98,0.99-2.01,1.95-3.11,2.8c-1.69,1.3-3.56,2.37-5.55,3.14c-1.47,0.58-4.08,1.99-5.67,1.58
		C-274.1,273.7-273.22,272.7-272.42,271.89z M-422.06,242.91c1.67-3.25,3.47-6.43,5.38-9.55c1.65-2.7,3.4-5.35,5.22-7.94
		c0.93-1.32,1.88-2.62,2.85-3.91c0.42-0.56,1.79-3.07,2.57-3.07c0.07,0,0.11-0.02,0.13,0c-0.92,3.51-2.38,7.37-4.37,11.59
		c-4.19,8.91-8.84,16.64-13.95,23.17c-1.84,2.76-3.67,5.58-5.8,8.14c1.49-4.89,3.71-9.68,5.9-14.28
		C-423.46,245.67-422.77,244.28-422.06,242.91z M-505.33,257.84c0.34,0.21,0.59,0.59,0.56,0.99c-0.02,0.32-0.2,0.6-0.4,0.86
		c-0.56,0.7-1.28,1.25-2.05,1.72c-1.03,0.64-2.11,1.24-3.24,1.7c-1.18,0.49-2.4,0.87-3.62,1.24c0.09-0.03,0.24-0.28,0.3-0.36
		c0.11-0.14,0.22-0.27,0.33-0.41c0.2-0.25,0.39-0.5,0.59-0.75c0.36-0.47,0.72-0.93,1.11-1.38c0.86-0.98,1.89-1.77,2.96-2.51
		c0.26-0.18,0.51-0.35,0.77-0.52c0.38-0.25,0.77-0.51,1.2-0.65c0.43-0.15,0.92-0.18,1.34,0
		C-505.43,257.78-505.38,257.81-505.33,257.84z M-364.81,267.25c0,1.07-0.62,3.12-1.87,6.15c-4.37,9.06-8.66,13.59-12.88,13.59
		h-0.89c-2.58-0.77-3.88-2.66-3.88-5.66c0-1.84,0.7-3.77,2.09-5.79c3.54-6.33,8.42-9.43,14.66-9.31c1.84,0.09,2.76,0.07,2.76-0.04
		V267.25z M-295.5,211.14h-0.06C-295.56,210.89-295.54,210.91-295.5,211.14z M-320.38,269.25c0.65-2.79,1.46-5.66,2.41-8.6
		c5.08-14.65,9.74-25.99,13.99-34.05c4.28-8.3,7.13-13.25,8.56-14.87c0.01,0.1,0.02,0.18,0.04,0.3c0,1.66-1.17,6.34-3.52,14.04
		c-5.29,14.11-10.01,24.73-14.17,31.86c-3.59,6.27-5.99,10.21-7.2,11.84C-320.29,269.54-320.33,269.35-320.38,269.25z
		 M-223.1,272.93c-1.2,1.38-2.4-1.68-2.8-2.59c-0.36-0.8-0.64-1.65-0.66-2.53c-0.03-1.1,0.37-2.18,0.9-3.15
		c0.4-0.72,0.92-1.43,1.69-1.71c1.26-0.45,3.36,0.27,3.91,1.56c0.24,0.55,0.18,1.18,0.07,1.77c-0.38,2.02-1.38,3.86-2.43,5.63
		C-222.56,272.14-222.81,272.59-223.1,272.93z M-217.35,305.85c-0.54,0.68-1.2,1.27-1.87,1.83c-2.41,2-5.2,3.76-8.32,4.02
		c-0.61,0.05-1.25,0.03-1.78-0.28c-0.89-0.53-1.11-1.72-1.09-2.76c0.05-2.62,1.09-5.15,2.53-7.34c1.33-2.03,3.05-3.73,4.65-5.53
		c1.6-1.8,3.29-3.4,5.37-4.65c1.55-0.93,2.11,2.7,2.34,3.69c0.58,2.5,0.49,4.95-0.17,7.43c-0.31,1.16-0.73,2.31-1.42,3.29
		C-217.19,305.65-217.27,305.75-217.35,305.85z"/>
	<g>
		<path class="st1" d="M-198.77,240.95c3.86-0.09,7.7-1.65,11.33-2.87c3.7-1.24,7.48-2.5,11.03-4.13c1.56-0.72,0.41-2.98-1.12-2.65
			c-3.74,0.82-7.47,2.03-11.12,3.2c-3.59,1.15-7.58,2.06-10.74,4.16C-200.36,239.3-200.05,240.98-198.77,240.95L-198.77,240.95z"/>
	</g>
	<g>
		<path class="st1" d="M-477.52,60.95c0.76,2.27,2.2,4.3,3.37,6.37c1.23,2.18,2.5,4.34,3.68,6.55c0.58,1.08,1.18,2.14,1.75,3.21
			c0.58,1.08,0.88,2.28,1.35,3.41c0.94,2.27,1.79,4.8,3.22,6.8c0.96,1.35,2.92,0.52,2.63-1.11c-0.43-2.43-1.73-4.8-2.88-6.97
			c-0.57-1.08-1.31-2.06-1.86-3.14c-0.58-1.15-1.09-2.33-1.68-3.47c-1.12-2.16-2.3-4.32-3.57-6.4c-1.28-2.12-2.59-4.5-4.43-6.18
			C-476.59,59.43-477.84,60-477.52,60.95L-477.52,60.95z"/>
	</g>
	<g>
		<path class="st1" d="M-455.05,95.5c-0.04-0.06-0.07-0.14-0.12-0.2c-0.07-0.08,0.04,0.12-0.01-0.02c-0.05-0.14-0.11-0.25-0.2-0.37
			c-0.4-0.49-1.15-0.06-1.18,0.49c0,0.11,0.04,0.24,0.07,0.35c0.03-0.19,0.05-0.39,0.08-0.58c-0.26,0.38-0.09,1.04,0.03,1.46
			c0.12,0.41,0.27,0.8,0.44,1.19c0.08,0.18-0.17-0.44-0.07-0.17c0.07,0.2,0.15,0.4,0.24,0.59c0.15,0.32,0.32,0.63,0.47,0.95
			c0.33,0.68,0.65,1.37,1.01,2.03c0.15,0.29,0.33,0.56,0.51,0.82c0.45,0.64,0.92,1.3,1.79,1.27c1.25-0.04,1.81-1.4,1.22-2.41
			c-0.18-0.31-0.38-0.61-0.56-0.92c-0.38-0.65-0.76-1.31-1.12-1.97c-0.34-0.63-0.65-1.28-1.12-1.83c-0.29-0.33-0.63-0.59-0.98-0.86
			c-0.39-0.3-0.93-0.64-1.42-0.52c0.19,0.03,0.39,0.05,0.58,0.08c-0.03-0.02-0.06-0.05-0.09-0.06c-0.03-0.02-0.06-0.06,0.04,0.03
			c0.16,0.16-0.08-0.15,0.16,0.18c-0.26,0.34-0.52,0.67-0.78,1.01c-0.16-0.07-0.21-0.1-0.15-0.06c0.01,0,0.02,0.01,0.02,0.01
			c0.01,0,0.06,0.04,0.06,0.04c0.04,0.02,0.03,0.02-0.01-0.01c-0.05-0.04-0.05-0.03,0,0.01c0.03,0.06,0.11,0.12,0.16,0.17
			C-455.51,96.7-454.71,96.07-455.05,95.5L-455.05,95.5z"/>
	</g>
	<g>
		<path class="st1" d="M-448.07,112.61c-0.44,1.19,0.01,2.75,0.41,3.9c0.46,1.34,1.11,2.59,1.8,3.82c1.42,2.56,2.84,5.13,4.28,7.69
			c1.41,2.52,2.83,5.04,4.22,7.56c0.68,1.23,1.35,2.46,2.02,3.69c0.75,1.38,1.31,2.96,2.28,4.18c1.4,1.75,4.31-0.14,3.68-2.14
			c-0.44-1.41-1.47-2.72-2.18-4.03c-0.67-1.23-1.35-2.46-2.03-3.68c-1.37-2.47-2.76-4.93-4.15-7.39c-1.38-2.44-2.77-4.88-4.16-7.31
			c-0.66-1.16-1.34-2.28-2.05-3.41c-0.69-1.1-1.2-2.46-2.04-3.43C-446.66,111.3-447.77,111.8-448.07,112.61L-448.07,112.61z"/>
	</g>
	<g>
		<path class="st1" d="M-167.13,229.2c4.74-1.06,9.38-2.71,14.04-4.09c4.8-1.42,9.55-3.02,14.33-4.52c9.43-2.95,18.9-5.85,28.48-8.3
			c1.93-0.49,1.09-3.56-0.82-2.99c-9.59,2.88-19.25,5.53-28.86,8.35c-9.4,2.76-19.15,5.32-28.13,9.25
			C-169.45,227.5-168.45,229.49-167.13,229.2L-167.13,229.2z"/>
	</g>
	<g>
		<path class="st1" d="M-561.73,122.55c4.31,4.01,8.81,7.81,13.25,11.68c4.44,3.87,8.7,7.91,13.03,11.89
			c4.33,3.98,8.61,8,12.97,11.95c2.13,1.93,4.25,3.87,6.35,5.84c1.05,0.98,2.1,1.96,3.14,2.95c1.04,1,1.94,2.11,2.96,3.14
			c2.29,2.31,4.87,4.38,7.29,6.55c2.53,2.27,5.07,4.54,7.61,6.79c0.92,0.81,2.31,0.91,3.22,0c0.83-0.83,0.93-2.4,0-3.22
			c-4.43-3.88-8.89-7.73-13.34-11.58c-2.24-1.94-4.69-3.59-6.98-5.48c-2.27-1.88-4.55-3.75-6.79-5.67
			c-8.85-7.59-17.98-14.86-26.73-22.56c-5-4.41-9.9-8.96-15.02-13.23C-561.43,121.05-562.38,121.95-561.73,122.55L-561.73,122.55z"
			/>
	</g>
	<g>
		<path class="st1" d="M-258.79,57.3c-2.8,6.32-5.41,12.73-8.51,18.92c-1.54,3.08-3.1,6.15-4.75,9.17
			c-0.81,1.49-1.63,2.97-2.49,4.43c-0.9,1.54-2.24,3.12-2.75,4.83c-0.53,1.77,1.81,3.1,3.08,1.79c1.24-1.27,1.96-3.24,2.79-4.8
			c0.79-1.5,1.59-2.99,2.35-4.51c1.59-3.14,3.1-6.31,4.46-9.55c2.73-6.46,5.29-12.99,6.95-19.81
			C-257.48,57.12-258.49,56.62-258.79,57.3L-258.79,57.3z"/>
	</g>
	<g>
		<path class="st1" d="M-616.85,219.22c0.76,0.53,1.36,1,2.23,1.34c0.85,0.33,1.74,0.61,2.61,0.88c1.75,0.54,3.5,1.08,5.26,1.6
			c3.57,1.06,7.2,2.01,10.68,3.36c6.9,2.67,13.99,4.89,21.02,7.18c1.93,0.63,3.86,1.26,5.79,1.89c2.07,0.67,4.21,1.63,6.37,1.85
			c2.09,0.21,2.78-2.93,1.05-3.87c-1.63-0.88-3.6-1.23-5.37-1.75c-1.76-0.51-3.52-1.02-5.28-1.53c-3.58-1.04-7.18-2.02-10.76-3.06
			c-3.52-1.03-7.04-2.04-10.6-2.9c-3.64-0.88-7.18-1.97-10.75-3.11c-1.93-0.62-3.87-1.23-5.81-1.82c-1-0.31-2-0.6-3.02-0.88
			c-0.51-0.14-1.02-0.24-1.54-0.31c-0.54-0.08-1.05,0.02-1.6,0.03C-617.18,218.1-617.33,218.88-616.85,219.22L-616.85,219.22z"/>
	</g>
	<g>
		<path class="st1" d="M-555.43,240.65c-0.05-0.04-0.11-0.08-0.16-0.11c0.15,0.14,0.31,0.25,0.49,0.35
			c0.29,0.17,0.61,0.29,0.92,0.41c0.52,0.21,1.04,0.41,1.58,0.56c1.13,0.33,2.27,0.64,3.39,0.98c2.31,0.7,4.63,1.41,6.92,2.17
			c2.24,0.74,4.45,1.54,6.65,2.39c1.1,0.42,2.19,0.86,3.28,1.31c1.21,0.5,2.38,1.14,3.69,1.28c1.83,0.2,2.9-2.53,1.53-3.69
			c-1.04-0.89-2.41-1.29-3.67-1.8c-1.21-0.48-2.42-0.95-3.64-1.4c-2.38-0.88-4.78-1.71-7.21-2.47c-2.37-0.74-4.75-1.42-7.16-2
			c-1.29-0.31-2.58-0.65-3.9-0.81c-1.23-0.15-2.31-0.22-3.29,0.65C-556.69,239.08-556.39,240.5-555.43,240.65L-555.43,240.65z"/>
	</g>
	<g>
		<path class="st1" d="M-364.45,37.18c-0.3,5.88-0.3,11.77-0.41,17.65c-0.11,5.9-0.46,11.77-0.72,17.65
			c-0.26,5.89-0.58,11.77-0.8,17.65c-0.11,2.88-0.23,5.75-0.39,8.63c-0.08,1.44-0.15,2.88-0.24,4.32c-0.09,1.45-0.35,2.87-0.5,4.32
			c-0.33,3.23-0.22,6.56-0.32,9.81c-0.11,3.4-0.21,6.8-0.3,10.2c-0.08,2.93,4.49,2.93,4.55,0c0.12-5.88,0.19-11.77,0.28-17.65
			c0.04-2.95-0.27-5.87-0.3-8.83c-0.03-2.94-0.05-5.88-0.03-8.83c0.11-11.64-0.2-23.28,0.07-34.92c0.15-6.67,0.49-13.34,0.46-20.01
			C-363.1,36.31-364.4,36.32-364.45,37.18L-364.45,37.18z"/>
	</g>
</g>
</svg>
